<svg width="17" height="10" viewBox="0 0 17 10" xmlns="http://www.w3.org/2000/svg"><path d="M1.06996 9.38781L1.06988 9.38789C1.03387 9.426 0.99468 9.45249 0.956108 9.46897C0.917749 9.48536 0.879044 9.49232 0.84152 9.49113C0.803969 9.48994 0.765071 9.48051 0.726619 9.46122C0.687951 9.44183 0.649158 9.41212 0.614284 9.37079C0.579323 9.32935 0.549573 9.27764 0.529104 9.21754C0.50863 9.15742 0.498497 9.09191 0.50018 9.02524C0.501864 8.95857 0.515275 8.89421 0.538467 8.8362C0.561628 8.77826 0.593372 8.72949 0.629452 8.69127C0.629485 8.69124 0.629517 8.69121 0.629549 8.69117L8.27496 0.603567L8.27514 0.603379C8.34459 0.529836 8.42449 0.500001 8.49523 0.500001C8.56596 0.500001 8.64586 0.529835 8.71531 0.603379L8.7155 0.603587L16.3619 8.69129L16.3618 8.69133L16.3666 8.69627C16.4033 8.734 16.4358 8.78255 16.4597 8.8406C16.4835 8.89867 16.4976 8.96337 16.4997 9.03057C16.5018 9.09778 16.492 9.16394 16.4715 9.2247C16.451 9.28544 16.4211 9.33768 16.3859 9.37949C16.3507 9.42118 16.3116 9.45104 16.2726 9.47043L16.4953 9.91811L16.2726 9.47043C16.2338 9.48971 16.1946 9.499 16.1568 9.49992C16.119 9.50084 16.0799 9.49348 16.0412 9.47645C16.0023 9.45933 15.9629 9.43197 15.9268 9.39277L15.9269 9.39274L15.9222 9.38776L8.85855 1.91662L8.49518 1.53229L8.13186 1.91667L1.06996 9.38781Z"></path></svg>