<svg data-v-5774aec3="" xmlns="http://www.w3.org/2000/svg" width="57" height="60" viewBox="0 0 57 60" fill="none"><path data-v-5774aec3="" fill-rule="evenodd" clip-rule="evenodd" d="M19.2842 0H37.7132C38.3275 0 38.7994 8.83674e-08 39.2098 0.0446513C41.0316 0.239695 42.7236 1.07936 43.9802 2.41203C45.2368 3.74469 45.9752 5.4825 46.0621 7.31163C47.7771 7.82726 49.2715 8.89921 50.309 10.3582C51.3466 11.8172 51.8684 13.58 51.7918 15.3684C52.9031 15.8707 53.886 16.5628 54.7321 17.5256C56.4521 19.4902 56.9771 21.893 56.9994 24.6977C57.0189 27.4102 56.561 30.8428 55.9886 35.1181L54.8326 43.7916C54.3858 47.1349 54.0256 49.8419 53.4644 51.96C52.878 54.1646 52.018 55.9926 50.4013 57.4102C48.7817 58.8251 46.8551 59.4363 44.5905 59.7265C42.4126 60 39.6845 60 36.3087 60H20.6859C17.3129 60 14.582 60 12.4068 59.7237C10.1423 59.4363 8.21564 58.8251 6.59892 57.4074C4.9794 55.9926 4.11659 54.1646 3.53301 51.96C2.97176 49.8391 2.61156 47.1349 2.16479 43.7916L1.006 35.1181C0.436378 30.8428 -0.0215542 27.4102 0.000783937 24.7005C0.0175376 21.893 0.545277 19.4902 2.26532 17.5256C3.07651 16.6011 4.07999 15.8648 5.20558 15.3684C5.12904 13.58 5.65076 11.8172 6.68834 10.3582C7.72593 8.89921 9.22025 7.82726 10.9353 7.31163C11.0222 5.4825 11.7606 3.74469 13.0172 2.41203C14.2738 1.07936 15.9657 0.239695 17.7875 0.0446513C18.198 8.83674e-08 18.6699 0 19.2842 0ZM15.1851 6.97674H41.8122C41.6641 6.25118 41.2888 5.59156 40.7406 5.09336C40.1924 4.59516 39.4998 4.28423 38.7631 4.20558C38.3754 4.18264 37.9869 4.17612 37.5987 4.18605H19.3959C18.6141 4.18605 18.3879 4.18884 18.2315 4.20558C17.4948 4.28423 16.8022 4.59516 16.254 5.09336C15.7058 5.59156 15.3333 6.25118 15.1851 6.97674ZM9.4582 14.28C12.0885 13.9535 15.4309 13.9535 19.5467 13.9535H37.4507C41.5665 13.9535 44.9061 13.9535 47.5392 14.28C47.367 13.402 46.895 12.6111 46.2038 12.0425C45.5126 11.4739 44.6453 11.1629 43.7501 11.1628H13.2473C11.3402 11.1628 9.79886 12.5302 9.4582 14.28ZM9.66483 18.4772C7.364 18.8009 6.19962 19.3898 5.41779 20.2828C4.63595 21.1758 4.20315 22.4037 4.18919 24.7284C4.16964 27.1116 4.5829 30.2512 5.18044 34.7274L5.3396 35.9135L6.51515 35.0623C9.55314 32.8633 14.0375 32.9721 16.9275 35.3609L27.6443 44.227C28.6579 45.0642 30.403 45.2205 31.6623 44.4893L32.4079 44.0567C35.9708 41.9833 40.7456 42.2037 44.0349 44.6512L49.8344 48.9712C50.168 47.0208 50.4566 45.0631 50.7 43.0995L51.8169 34.7274C52.4145 30.2512 52.8277 27.1116 52.811 24.7284C52.7942 22.4065 52.3642 21.1758 51.5824 20.2828C50.8006 19.3898 49.6334 18.8009 47.3326 18.4772C44.9703 18.1423 41.8039 18.1395 37.286 18.1395H19.7114C15.1935 18.1395 12.0243 18.1479 9.66483 18.4772ZM48.5137 53.2047L41.533 48.0084C39.6259 46.5879 36.6661 46.4233 34.5132 47.6735L33.7677 48.1088C31.0536 49.6856 27.393 49.454 24.9721 47.453L14.2581 38.587C12.8676 37.4372 10.4913 37.3563 8.97514 38.453L5.97066 40.6298L6.30015 43.0995C6.76925 46.6158 7.09874 49.0549 7.58459 50.8856C8.05369 52.6633 8.60656 53.6009 9.35768 54.2595C10.1116 54.9153 11.1168 55.3395 12.9374 55.5712C14.8166 55.8112 17.2821 55.8139 20.8311 55.8139H36.1719C39.718 55.8139 42.1864 55.8112 44.0656 55.5712C45.889 55.3395 46.8914 54.9153 47.6425 54.2595C47.9692 53.9749 48.2568 53.64 48.5165 53.2047H48.5137ZM41.0639 26.5116C40.5085 26.5116 39.9758 26.7321 39.5831 27.1247C39.1903 27.5172 38.9697 28.0495 38.9697 28.6047C38.9697 29.1598 39.1903 29.6921 39.5831 30.0846C39.9758 30.4772 40.5085 30.6977 41.0639 30.6977C41.6193 30.6977 42.152 30.4772 42.5447 30.0846C42.9375 29.6921 43.1581 29.1598 43.1581 28.6047C43.1581 28.0495 42.9375 27.5172 42.5447 27.1247C42.152 26.7321 41.6193 26.5116 41.0639 26.5116ZM34.7813 28.6047C34.7813 27.7801 34.9438 26.9636 35.2595 26.2018C35.5753 25.4399 36.038 24.7477 36.6214 24.1647C37.2048 23.5816 37.8974 23.1191 38.6597 22.8035C39.4219 22.488 40.2389 22.3256 41.0639 22.3256C41.889 22.3256 42.7059 22.488 43.4682 22.8035C44.2304 23.1191 44.923 23.5816 45.5064 24.1647C46.0898 24.7477 46.5526 25.4399 46.8683 26.2018C47.184 26.9636 47.3465 27.7801 47.3465 28.6047C47.3465 30.27 46.6846 31.8671 45.5064 33.0446C44.3282 34.2222 42.7302 34.8837 41.0639 34.8837C39.3977 34.8837 37.7997 34.2222 36.6214 33.0446C35.4432 31.8671 34.7813 30.27 34.7813 28.6047Z" fill="white"></path></svg>