<svg xmlns="http://www.w3.org/2000/svg" width="34" height="17" viewBox="0 0 34 17" fill="none" id="codesign-logo" data-v-806d42ea=""><g clip-path="url(#clip0_993_76)" data-v-806d42ea=""><path d="M25.2718 0.00161198C22.9559 0.0278342 20.9039 0.939912 19.4163 2.42204L19.4151 2.4209L16.484 5.38743L11.3615 10.5715C11.3615 10.5715 11.1383 10.7972 11.0262 10.9101C11.025 10.9112 11.0239 10.9123 11.0228 10.9135C10.4075 11.536 9.54303 11.9179 8.55729 11.9293C6.58695 11.951 5.07322 10.4768 5.05283 8.517C5.03243 6.57314 6.51331 5.04654 8.44059 5.02488C10.3158 5.00436 11.7921 6.32003 11.9756 8.10999L15.8789 4.13675C14.3879 1.60003 11.604 -0.0360112 8.31936 0.00161198C3.58668 0.0540565 -0.049213 3.80156 -0.000492654 8.57515C0.0493607 13.3898 3.7657 17.0541 8.60375 16.9993C10.9854 16.9731 13.0781 16.0166 14.5839 14.5299C14.5998 14.5139 14.6167 14.4991 14.6326 14.4831L14.6847 14.4295L17.5003 11.5804C18.7093 14.816 21.7027 17.0335 25.4655 16.9902C30.3081 16.9355 34.0505 13.1994 33.9984 8.40185C33.9463 3.59178 30.1608 -0.0531127 25.2718 0.00161198ZM25.5097 11.9293C23.5394 11.951 22.0256 10.478 22.0052 8.517C21.9848 6.57314 23.4657 5.04654 25.393 5.02488C27.3837 5.00322 28.9258 6.48763 28.9473 8.44632C28.9689 10.4004 27.4812 11.9065 25.5097 11.9293Z" fill="#3C3C3B" data-v-806d42ea=""></path></g><defs data-v-806d42ea=""><clipPath id="clip0_993_76" data-v-806d42ea=""><rect width="34" height="17" fill="white" data-v-806d42ea=""></rect></clipPath></defs></svg>