<svg width="48" height="48" viewBox="0 0 48 48" fill="none" xmlns="http://www.w3.org/2000/svg" data-v-806d42ea=""><g clip-path="url(#clip0_1_2)" data-v-806d42ea=""><path d="M32.875 19.4219C31.5287 19.4203 30.2379 18.8848 29.2859 17.9328C28.3339 16.9808 27.7984 15.6901 27.7969 14.3438C27.7969 14.2401 27.7557 14.1408 27.6825 14.0675C27.6092 13.9943 27.5099 13.9531 27.4062 13.9531H23.5C23.3964 13.9531 23.297 13.9943 23.2238 14.0675C23.1505 14.1408 23.1094 14.2401 23.1094 14.3438V27.2344C23.1093 27.6538 22.9967 28.0656 22.7833 28.4267C22.5698 28.7877 22.2634 29.0849 21.896 29.2872C21.5285 29.4895 21.1136 29.5895 20.6943 29.5767C20.275 29.564 19.8669 29.4389 19.5124 29.2147C19.158 28.9904 18.8702 28.6751 18.6792 28.3017C18.4881 27.9283 18.4007 27.5105 18.4262 27.0918C18.4517 26.6731 18.589 26.2689 18.8239 25.9215C19.0588 25.574 19.3827 25.2959 19.7617 25.1162C19.8285 25.0844 19.8849 25.0343 19.9243 24.9717C19.9637 24.9091 19.9845 24.8367 19.9844 24.7627V20.5938C19.9844 20.5367 19.9719 20.4802 19.9478 20.4285C19.9236 20.3767 19.8885 20.3309 19.8447 20.2942C19.8009 20.2575 19.7497 20.2309 19.6945 20.2162C19.6393 20.2014 19.5816 20.199 19.5254 20.209C16.2236 20.7969 13.7344 23.8164 13.7344 27.2344C13.7344 29.0992 14.4752 30.8876 15.7938 32.2062C17.1124 33.5248 18.9008 34.2656 20.7656 34.2656C22.6304 34.2656 24.4189 33.5248 25.7375 32.2062C27.0561 30.8876 27.7969 29.0992 27.7969 27.2344V22.6875C29.3257 23.6216 31.0834 24.1138 32.875 24.1094C32.9786 24.1094 33.078 24.0682 33.1512 23.995C33.2245 23.9217 33.2656 23.8224 33.2656 23.7188V19.8125C33.2656 19.7089 33.2245 19.6095 33.1512 19.5363C33.078 19.463 32.9786 19.4219 32.875 19.4219ZM32.4844 23.3203C30.7384 23.2484 29.052 22.665 27.6348 21.6426C27.5763 21.6004 27.5074 21.5753 27.4355 21.5699C27.3637 21.5645 27.2917 21.579 27.2276 21.612C27.1635 21.6449 27.1098 21.695 27.0724 21.7566C27.035 21.8181 27.0153 21.8889 27.0156 21.9609V27.2344C27.0156 28.892 26.3571 30.4817 25.185 31.6538C24.0129 32.8259 22.4232 33.4844 20.7656 33.4844C19.108 33.4844 17.5183 32.8259 16.3462 31.6538C15.1741 30.4817 14.5156 28.892 14.5156 27.2344C14.5156 24.3516 16.5 21.7861 19.2031 21.082V24.5303C18.728 24.8046 18.3334 25.1992 18.0592 25.6743C17.7849 26.1495 17.6405 26.6885 17.6406 27.2372C17.6407 27.7858 17.7853 28.3248 18.0597 28.7998C18.3342 29.2749 18.7289 29.6693 19.2041 29.9435C19.6793 30.2176 20.2184 30.3618 20.767 30.3616C21.3157 30.3614 21.8546 30.2167 22.3296 29.9421C22.8046 29.6675 23.1989 29.2727 23.4729 28.7974C23.747 28.3221 23.891 27.783 23.8906 27.2344V14.7344H27.0283C27.1251 16.1495 27.731 17.4818 28.734 18.4848C29.737 19.4878 31.0692 20.0937 32.4844 20.1904V23.3203Z" fill="#978C21" class="tiktok" data-v-806d42ea=""></path><path d="M23.2 47.4C36.013 47.4 46.4 37.013 46.4 24.2C46.4 11.387 36.013 1 23.2 1C10.387 1 0 11.387 0 24.2C0 37.013 10.387 47.4 23.2 47.4Z" stroke="#978C21" stroke-width="0.6" class="tiktok" data-v-806d42ea=""></path></g><defs data-v-806d42ea=""><clipPath id="clip0_1_2" data-v-806d42ea=""><rect width="48" height="48" fill="white" data-v-806d42ea=""></rect></clipPath></defs></svg>