<svg width="48" height="48" viewBox="0 0 48 48" fill="none" xmlns="http://www.w3.org/2000/svg"><circle cx="24" cy="24" r="23.7" stroke="#978C21" stroke-width="0.6"></circle><path d="M29.573 18.287C29.3475 18.287 29.1271 18.3539 28.9396 18.4791C28.7522 18.6044 28.6061 18.7824 28.5198 18.9907C28.4335 19.199 28.4109 19.4283 28.4549 19.6494C28.4989 19.8705 28.6075 20.0737 28.7669 20.2331C28.9263 20.3925 29.1295 20.5011 29.3506 20.5451C29.5717 20.5891 29.801 20.5665 30.0093 20.4802C30.2176 20.3939 30.3956 20.2478 30.5209 20.0604C30.6461 19.8729 30.713 19.6525 30.713 19.427C30.713 19.1247 30.5929 18.8347 30.3791 18.6209C30.1653 18.4071 29.8753 18.287 29.573 18.287ZM33.943 20.586C33.9245 19.7978 33.7769 19.0179 33.506 18.2775C33.2644 17.644 32.8885 17.0703 32.404 16.596C31.9336 16.1091 31.3586 15.7355 30.7225 15.5035C29.984 15.2244 29.2033 15.0733 28.414 15.057C27.407 15 27.084 15 24.5 15C21.916 15 21.593 15 20.586 15.057C19.7967 15.0733 19.016 15.2244 18.2775 15.5035C17.6426 15.7378 17.0681 16.1111 16.596 16.596C16.1091 17.0664 15.7355 17.6414 15.5035 18.2775C15.2244 19.016 15.0733 19.7967 15.057 20.586C15 21.593 15 21.916 15 24.5C15 27.084 15 27.407 15.057 28.414C15.0733 29.2033 15.2244 29.984 15.5035 30.7225C15.7355 31.3586 16.1091 31.9336 16.596 32.404C17.0681 32.8889 17.6426 33.2622 18.2775 33.4965C19.016 33.7756 19.7967 33.9267 20.586 33.943C21.593 34 21.916 34 24.5 34C27.084 34 27.407 34 28.414 33.943C29.2033 33.9267 29.984 33.7756 30.7225 33.4965C31.3586 33.2645 31.9336 32.8909 32.404 32.404C32.8906 31.9315 33.2669 31.3573 33.506 30.7225C33.7769 29.9821 33.9245 29.2022 33.943 28.414C33.943 27.407 34 27.084 34 24.5C34 21.916 34 21.593 33.943 20.586ZM32.233 28.3C32.2261 28.903 32.1169 29.5005 31.91 30.067C31.7583 30.4804 31.5147 30.854 31.1975 31.1595C30.8894 31.4735 30.5166 31.7166 30.105 31.872C29.5385 32.0789 28.941 32.1881 28.338 32.195C27.388 32.2425 27.0365 32.252 24.538 32.252C22.0395 32.252 21.688 32.252 20.738 32.195C20.1118 32.2067 19.4884 32.1103 18.895 31.91C18.5015 31.7467 18.1458 31.5041 17.85 31.1975C17.5347 30.8923 17.2941 30.5184 17.147 30.105C16.9151 29.5304 16.7864 28.9193 16.767 28.3C16.767 27.35 16.71 26.9985 16.71 24.5C16.71 22.0015 16.71 21.65 16.767 20.7C16.7713 20.0835 16.8838 19.4725 17.0995 18.895C17.2667 18.494 17.5235 18.1366 17.85 17.85C18.1386 17.5234 18.4953 17.2639 18.895 17.09C19.4741 16.881 20.0844 16.7718 20.7 16.767C21.65 16.767 22.0015 16.71 24.5 16.71C26.9985 16.71 27.35 16.71 28.3 16.767C28.903 16.7739 29.5005 16.8831 30.067 17.09C30.4987 17.2502 30.8862 17.5107 31.1975 17.85C31.5088 18.1418 31.7521 18.4986 31.91 18.895C32.1211 19.4735 32.2304 20.0842 32.233 20.7C32.2805 21.65 32.29 22.0015 32.29 24.5C32.29 26.9985 32.2805 27.35 32.233 28.3ZM24.5 19.6265C23.5365 19.6284 22.5952 19.9158 21.795 20.4524C20.9948 20.9891 20.3717 21.7509 20.0043 22.6416C19.6368 23.5322 19.5417 24.5118 19.7308 25.4566C19.9199 26.4013 20.3848 27.2688 21.0668 27.9494C21.7487 28.6301 22.6171 29.0933 23.5622 29.2805C24.5073 29.4678 25.4867 29.3708 26.3767 29.0016C27.2667 28.6325 28.0272 28.0078 28.5623 27.2066C29.0974 26.4053 29.383 25.4635 29.383 24.5C29.3843 23.8588 29.2587 23.2238 29.0137 22.6313C28.7686 22.0388 28.4088 21.5007 27.955 21.0477C27.5012 20.5948 26.9624 20.2361 26.3694 19.9922C25.7765 19.7483 25.1411 19.624 24.5 19.6265ZM24.5 27.6635C23.8743 27.6635 23.2627 27.478 22.7425 27.1304C22.2222 26.7827 21.8167 26.2887 21.5773 25.7106C21.3379 25.1326 21.2752 24.4965 21.3973 23.8828C21.5194 23.2692 21.8206 22.7055 22.2631 22.2631C22.7055 21.8206 23.2692 21.5194 23.8828 21.3973C24.4965 21.2752 25.1326 21.3379 25.7106 21.5773C26.2887 21.8167 26.7827 22.2222 27.1304 22.7425C27.478 23.2627 27.6635 23.8743 27.6635 24.5C27.6635 24.9154 27.5817 25.3268 27.4227 25.7106C27.2637 26.0944 27.0307 26.4432 26.7369 26.7369C26.4432 27.0307 26.0944 27.2637 25.7106 27.4227C25.3268 27.5817 24.9154 27.6635 24.5 27.6635Z" fill="#978C21"></path></svg>