<svg viewBox="0 0 190 46" fill="none" xmlns="http://www.w3.org/2000/svg"><path fill-rule="evenodd" clip-rule="evenodd" d="M32.7296 19.0201C31.9855 9.55646 42.9457 9.02141 45.1695 15.7848C48.8647 44.9784 14.9058 52.0092 5.55078 38.6748C11.1688 45.5218 40.3624 41.325 32.7296 19.0201Z" fill="#8F8933" class="logo__leaf"></path><path fill-rule="evenodd" clip-rule="evenodd" d="M26.9437 12.8336C36.3322 14.1963 37.5862 3.28631 30.9817 0.627788C2.10577 -4.97351 -7.12382 28.4754 5.56687 38.6915C-0.895517 32.6304 5.19902 3.75448 26.9437 12.8336Z" fill="#8F8933" class="logo__leaf"></path><path d="M77.0458 27.7566C77.0458 29.5623 76.4104 31.0087 75.1229 32.1038C73.9023 33.1238 72.3641 33.6421 70.5248 33.6421H56.0033V30.3231H70.5248C71.4361 30.3231 72.222 30.1225 72.8908 29.7128C73.6515 29.2112 74.0361 28.5341 74.0361 27.6813C74.0361 26.8286 73.6515 26.1598 72.8657 25.7C72.2136 25.3154 71.4361 25.1148 70.5248 25.1148H61.5461C59.8991 25.1148 58.503 24.6633 57.3911 23.7437C56.2039 22.7572 55.6104 21.453 55.6104 19.8395C55.6104 18.2344 56.2039 16.9469 57.3911 15.9604C58.503 15.0491 59.8907 14.5893 61.5461 14.5893H75.9004V17.9083H61.5461C60.9107 17.9083 60.3756 18.0922 59.9242 18.4434C59.4811 18.7945 59.2554 19.271 59.2554 19.8646C59.2554 20.4749 59.4811 20.9598 59.9242 21.2858C60.3756 21.6202 60.9107 21.7874 61.5461 21.7874H70.5248C72.3641 21.7874 73.894 22.3225 75.1229 23.3758C76.4104 24.4961 77.0458 25.9508 77.0458 27.7566ZM99.3172 33.6421H96.0065V25.7167H84.8207V22.4061H96.0065V14.5893H99.3172V33.6421ZM83.3242 33.6421H80.0052V14.5893H83.3242V33.6421ZM127.115 33.6421L122.851 33.6087L119.649 28.2832H110.612L112.618 24.9894H117.659L114.34 19.4884L105.754 33.6003H101.491L111.832 16.3951C112.091 15.952 112.451 15.5424 112.919 15.1662C113.479 14.7398 113.981 14.5225 114.424 14.5225C114.909 14.5225 115.41 14.7231 115.929 15.1328C116.372 15.4839 116.74 15.9102 117.016 16.3868L127.115 33.6421ZM147.714 31.9951C147.714 33.2241 147.296 33.8427 146.46 33.8427C145.85 33.8427 145.156 33.4582 144.395 32.6974L132.189 20.4247V33.6505H128.904V16.2363C128.904 15.7932 129.029 15.4003 129.263 15.0826C129.506 14.7565 129.848 14.5977 130.3 14.5977C130.91 14.5977 131.545 14.9237 132.198 15.5758L144.403 27.8151V14.5893H147.722V31.9951H147.714ZM169.367 17.9083H161.876V33.6421H158.582V17.9083H151.058V14.5893H169.367V17.9083ZM190 33.6421L179.909 16.4035C179.633 15.9186 179.274 15.5006 178.822 15.1495C178.312 14.7398 177.802 14.5392 177.317 14.5392C176.874 14.5392 176.364 14.7565 175.812 15.1829C175.344 15.5508 174.985 15.9688 174.726 16.4119L164.384 33.617H168.648L177.234 19.4967L180.553 24.9977H175.503L173.497 28.2916H182.534L185.736 33.617L190 33.6421Z" fill="#414042" class="logo__text"></path><path d="M56.4891 40.505H60.502V37.3281H61.3714V45.1616H60.502V41.3159H56.4891V45.1616H55.6196V37.3281H56.4891V40.505Z" fill="#414042" class="logo__text"></path><path d="M76.3105 38.474C77.088 37.7049 78.016 37.3203 79.0944 37.3203C80.1812 37.3203 81.1092 37.7049 81.8867 38.474C82.6642 39.2431 83.0488 40.1628 83.0488 41.2496C83.0488 42.3364 82.6642 43.256 81.8867 44.0168C81.1092 44.7776 80.1812 45.1538 79.0944 45.1538C78.0076 45.1538 77.0796 44.7692 76.3105 44.0168C75.533 43.256 75.1484 42.3364 75.1484 41.2496C75.1484 40.1711 75.5414 39.2431 76.3105 38.474ZM81.3015 39.0258C80.6996 38.4155 79.9639 38.1062 79.1028 38.1062C78.2417 38.1062 77.506 38.4155 76.9041 39.0258C76.3021 39.6361 76.0012 40.3801 76.0012 41.2412C76.0012 42.1023 76.3021 42.838 76.9124 43.4483C77.5144 44.0669 78.25 44.3763 79.1111 44.3763C79.9722 44.3763 80.6996 44.0669 81.3099 43.4483C81.9202 42.8296 82.2211 42.094 82.2211 41.2412C82.2044 40.3801 81.9034 39.6444 81.3015 39.0258Z" fill="#414042" class="logo__text"></path><path d="M97.3544 37.3281V44.3506H99.5113V45.1616H96.4766V37.3281H97.3544Z" fill="#414042" class="logo__text"></path><path d="M112.193 45.1616V37.3281H113.664C114.316 37.3281 114.885 37.395 115.361 37.5288C115.838 37.6625 116.289 37.9133 116.724 38.2728C117.594 39.0252 118.02 40.0117 118.02 41.2574C118.02 42.4445 117.594 43.4143 116.741 44.1751C116.306 44.5596 115.846 44.8272 115.378 44.9609C114.902 45.0947 114.325 45.1616 113.648 45.1616H112.193ZM113.071 44.3506H113.706C114.241 44.3506 114.701 44.2921 115.094 44.1751C115.487 44.058 115.846 43.849 116.181 43.5397C116.833 42.9294 117.159 42.1603 117.159 41.2407C117.159 40.2709 116.816 39.485 116.139 38.8915C115.804 38.5905 115.445 38.3899 115.06 38.2895C114.676 38.1892 114.224 38.1307 113.706 38.1307H113.071V44.3506Z" fill="#414042" class="logo__text"></path><path d="M131.955 37.3281V45.1616H131.086V37.3281H131.955Z" fill="#414042" class="logo__text"></path><path d="M169.024 41.2239H172.176C172.193 41.8008 172.142 42.294 172.034 42.7121C171.925 43.1301 171.716 43.523 171.39 43.8992C171.047 44.3005 170.629 44.6098 170.128 44.8355C169.626 45.0529 169.116 45.1699 168.581 45.1699C167.519 45.1699 166.6 44.7854 165.83 44.0162C165.061 43.2471 164.677 42.3358 164.677 41.2657C164.677 40.1789 165.061 39.251 165.83 38.4818C166.6 37.7127 167.536 37.3281 168.623 37.3281C169.927 37.3281 170.989 37.8715 171.833 38.9667L171.223 39.5436C170.546 38.5905 169.676 38.114 168.623 38.114C167.762 38.114 167.034 38.4233 166.432 39.0503C165.83 39.6773 165.529 40.4214 165.529 41.2825C165.529 42.1101 165.822 42.8207 166.416 43.4227C166.7 43.7069 167.043 43.941 167.419 44.1249C167.803 44.3005 168.18 44.3924 168.564 44.3924C169.258 44.3924 169.877 44.1667 170.437 43.7153C170.989 43.2638 171.273 42.6953 171.273 42.0182H169.024V41.2239Z" fill="#414042" class="logo__text"></path><path d="M189.716 38.4989L189.023 38.9336C188.696 38.3819 188.245 38.106 187.668 38.106C187.317 38.106 187.008 38.2147 186.757 38.4404C186.498 38.6578 186.372 38.942 186.372 39.2848C186.372 39.4353 186.406 39.5774 186.473 39.7111C186.54 39.8365 186.648 39.9536 186.799 40.0455C186.941 40.1459 187.066 40.2211 187.167 40.2713C187.267 40.3214 187.409 40.3883 187.601 40.4719L188.12 40.6976C188.421 40.823 188.663 40.9401 188.855 41.0571C189.048 41.1658 189.24 41.3079 189.432 41.4668C189.624 41.634 189.767 41.8263 189.859 42.052C189.951 42.2777 190.001 42.5369 190.001 42.8295C190.001 43.4899 189.758 44.0417 189.282 44.4931C188.805 44.9446 188.22 45.1703 187.534 45.1703C186.907 45.1703 186.381 44.9947 185.938 44.6353C185.495 44.2758 185.219 43.7992 185.093 43.214L185.946 42.9799C186.005 43.3729 186.172 43.7073 186.464 43.9832C186.757 44.2507 187.108 44.3928 187.518 44.3928C187.944 44.3928 188.32 44.2507 188.646 43.9664C188.972 43.6822 189.131 43.3311 189.131 42.9131C189.131 42.7459 189.098 42.587 189.039 42.4449C188.981 42.3028 188.914 42.1857 188.839 42.1021C188.763 42.0185 188.646 41.9182 188.487 41.8179C188.329 41.7176 188.203 41.6423 188.111 41.6005C188.019 41.5587 187.877 41.4918 187.677 41.4082L187.2 41.2076C186.648 40.9652 186.222 40.706 185.929 40.4217C185.637 40.1375 185.495 39.7529 185.495 39.268C185.495 38.6996 185.712 38.2314 186.138 37.8803C186.565 37.5208 187.083 37.3452 187.685 37.3452C188.12 37.3452 188.513 37.4455 188.872 37.6545C189.232 37.8385 189.507 38.1311 189.716 38.4989Z" fill="#414042" class="logo__text"></path><path d="M152.396 37.3286H151.518V43.3981L145.725 37.3286H145.407V45.1621H146.285V39.126L152.062 45.1621H152.396V37.3286Z" fill="#414042" class="logo__text"></path></svg>