<svg width="48" height="48" viewBox="0 0 48 48" fill="none" xmlns="http://www.w3.org/2000/svg"><circle cx="24" cy="24" r="23.7" stroke="#978C21" stroke-width="0.6"></circle><path d="M34.4546 32.9958H30.1901C29.8884 32.9958 29.6446 32.7536 29.6446 32.4538V25.6284C29.6446 23.2875 28.4298 23.2875 28.0289 23.2875C26.9504 23.2875 26.4917 24.1335 26.343 24.499C26.2727 24.6633 26.2397 24.9425 26.2397 25.3327V32.4579C26.2397 32.7577 25.9959 33 25.6942 33H21.4256C21.281 33 21.1405 32.9425 21.0372 32.8399C20.9339 32.7372 20.8761 32.5975 20.8802 32.4538C20.8802 32.3388 20.938 20.8933 20.8802 19.7229C20.8719 19.575 20.9256 19.4313 21.029 19.3245C21.1323 19.2177 21.2728 19.1561 21.4256 19.1561H25.6942C25.9959 19.1561 26.2397 19.3984 26.2397 19.6982V20.0185C26.9587 19.382 27.9959 18.8563 29.5413 18.8563C32.9587 18.8563 35 21.2054 35 25.1396V32.4538C35 32.7536 34.7562 32.9958 34.4546 32.9958ZM30.7355 31.9117L33.9132 31.9116V25.1396C33.9132 21.8336 32.3223 19.9404 29.5455 19.9404C27.6901 19.9404 26.7893 20.8604 26.2232 21.7022C26.157 21.924 25.9463 22.0883 25.6984 22.0883H25.6695C25.4711 22.0883 25.2893 21.9815 25.1943 21.809C25.1199 21.6735 25.1033 21.5174 25.1529 21.3737V20.2362H21.9835C22.0124 22.499 21.9835 29.8214 21.9752 31.9076H25.1488V25.3285C25.1488 24.7824 25.2066 24.3881 25.3306 24.0883C25.8099 22.9097 26.8182 22.1992 28.0248 22.1992C29.7438 22.1992 30.7314 23.4477 30.7314 25.6242V31.9117H30.7356L30.7355 31.9117ZM19.0661 32.9958H14.7975C14.4959 32.9958 14.2521 32.7535 14.2521 32.4537V19.6982C14.2521 19.3984 14.4959 19.1561 14.7975 19.1561H19.0661C19.3678 19.1561 19.6116 19.3984 19.6116 19.6981V32.4537C19.6116 32.7535 19.3678 32.9958 19.0661 32.9958V32.9958ZM15.343 31.9116H18.5207V20.2402H15.343V31.9116L15.343 31.9116ZM16.9339 18.499L16.905 18.4989C15.2231 18.4989 14 17.3408 14 15.7474C14 14.1581 15.2438 13 16.9628 13C18.6529 13 19.8595 14.1252 19.8926 15.7351C19.8926 17.3408 18.6488 18.499 16.9339 18.499ZM16.9628 14.0883C15.843 14.0883 15.0909 14.7577 15.0909 15.7516C15.0909 16.729 15.8347 17.4148 16.905 17.4148H16.9339C18.0496 17.4148 18.8017 16.7454 18.8017 15.7515C18.781 14.7454 18.0579 14.0883 16.9628 14.0883Z" fill="#978C21"></path></svg>