<svg width="48" height="48" viewBox="0 0 48 48" fill="none" xmlns="http://www.w3.org/2000/svg"><circle cx="24" cy="24" r="23.7" stroke="#978C21" stroke-width="0.6"></circle><path d="M35 23.9397C35 23.8923 35 23.8384 34.9975 23.7759C34.9951 23.6014 34.9902 23.4054 34.9853 23.1964C34.9656 22.5953 34.9312 21.9963 34.8772 21.4318C34.8036 20.654 34.6955 20.0055 34.5482 19.5186C34.3927 19.0105 34.088 18.547 33.6645 18.1746C33.2409 17.8022 32.7134 17.5339 32.1346 17.3964C31.4397 17.2327 30.0795 17.1314 28.1643 17.0689C27.2533 17.0388 26.2786 17.0194 25.3038 17.0086C24.9625 17.0043 24.6458 17.0022 24.3609 17H23.6391C23.3542 17.0022 23.0375 17.0043 22.6962 17.0086C21.7214 17.0194 20.7467 17.0388 19.8357 17.0689C17.9205 17.1336 16.5578 17.2348 15.8654 17.3964C15.2864 17.5335 14.7587 17.8018 14.3351 18.1742C13.9115 18.5467 13.6069 19.0103 13.4518 19.5186C13.302 20.0055 13.1964 20.654 13.1228 21.4318C13.0687 21.9963 13.0344 22.5953 13.0147 23.1964C13.0074 23.4054 13.0049 23.6014 13.0025 23.7759C13.0025 23.8384 13 23.8923 13 23.9397V24.0603C13 24.1077 13 24.1616 13.0025 24.2241C13.0049 24.3986 13.0098 24.5946 13.0147 24.8036C13.0344 25.4047 13.0687 26.0037 13.1228 26.5682C13.1964 27.346 13.3045 27.9945 13.4518 28.4814C13.7661 29.5134 14.6893 30.3278 15.8654 30.6036C16.5578 30.7673 17.9205 30.8686 19.8357 30.9311C20.7467 30.9612 21.7214 30.9806 22.6962 30.9914C23.0375 30.9957 23.3542 30.9978 23.6391 31H24.3609C24.6458 30.9978 24.9625 30.9957 25.3038 30.9914C26.2786 30.9806 27.2533 30.9612 28.1643 30.9311C30.0795 30.8664 31.4422 30.7652 32.1346 30.6036C33.3107 30.3278 34.2339 29.5155 34.5482 28.4814C34.698 27.9945 34.8036 27.346 34.8772 26.5682C34.9312 26.0037 34.9656 25.4047 34.9853 24.8036C34.9926 24.5946 34.9951 24.3986 34.9975 24.2241C34.9975 24.1616 35 24.1077 35 24.0603V23.9397ZM33.2321 24.0517C33.2321 24.097 33.2321 24.1465 33.2297 24.2047C33.2272 24.3727 33.2223 24.558 33.2174 24.7584C33.2002 25.3315 33.1658 25.9046 33.1143 26.4367C33.048 27.1305 32.9547 27.6993 32.8393 28.0806C32.6871 28.5783 32.2402 28.9726 31.6754 29.104C31.1598 29.2247 29.8609 29.3216 28.0955 29.3798C27.2018 29.41 26.2393 29.4294 25.2792 29.4401C24.9429 29.4444 24.631 29.4466 24.3511 29.4466H23.6489L22.7208 29.4401C21.7607 29.4294 20.8007 29.41 19.9045 29.3798C18.1391 29.3195 16.8377 29.2247 16.3246 29.104C15.7598 28.9705 15.3129 28.5783 15.1607 28.0806C15.0453 27.6993 14.952 27.1305 14.8857 26.4367C14.8342 25.9046 14.8022 25.3315 14.7826 24.7584C14.7752 24.558 14.7728 24.3706 14.7703 24.2047C14.7703 24.1465 14.7679 24.0948 14.7679 24.0517V23.9483C14.7679 23.903 14.7679 23.8535 14.7703 23.7953C14.7728 23.6273 14.7777 23.442 14.7826 23.2416C14.7998 22.6685 14.8342 22.0954 14.8857 21.5632C14.952 20.8695 15.0453 20.3007 15.1607 19.9194C15.3129 19.4217 15.7598 19.0274 16.3246 18.896C16.8402 18.7753 18.1391 18.6784 19.9045 18.6202C20.7982 18.59 21.7607 18.5706 22.7208 18.5599C23.0571 18.5556 23.369 18.5534 23.6489 18.5534H24.3511L25.2792 18.5599C26.2393 18.5706 27.1993 18.59 28.0955 18.6202C29.8609 18.6805 31.1623 18.7753 31.6754 18.896C32.2402 19.0295 32.6871 19.4217 32.8393 19.9194C32.9547 20.3007 33.048 20.8695 33.1143 21.5632C33.1658 22.0954 33.1978 22.6685 33.2174 23.2416C33.2248 23.442 33.2272 23.6294 33.2297 23.7953C33.2297 23.8535 33.2321 23.9052 33.2321 23.9483V24.0517ZM21.8147 26.887L27.5112 23.9785L21.8147 21.113V26.887Z" fill="#978C21"></path></svg>